<?xml version="1.0" standalone="no"?>
<!DOCTYPE svg PUBLIC "-//W3C//DTD SVG 20010904//EN"
 "http://www.w3.org/TR/2001/REC-SVG-20010904/DTD/svg10.dtd">
<svg version="1.0" xmlns="http://www.w3.org/2000/svg"
 width="700.000000pt" height="700.000000pt" viewBox="0 0 700.000000 700.000000"
 preserveAspectRatio="xMidYMid meet">
<metadata>
Created by potrace 1.14, written by Peter Selinger 2001-2017
</metadata>
<g transform="translate(0.000000,700.000000) scale(0.100000,-0.100000)"
fill="#000000" stroke="none">
<path d="M0 3500 l0 -3500 2200 0 c1621 0 2200 3 2200 11 0 33 -77 234 -126
329 -77 152 -161 266 -284 390 -381 381 -911 545 -1439 445 -249 -48 -533
-187 -726 -357 l-43 -38 -46 52 -45 53 27 30 c16 17 61 66 103 110 169 181
292 420 355 690 26 111 28 135 28 325 0 174 -3 220 -22 303 -70 315 -202 558
-422 777 -176 177 -361 291 -599 370 -151 51 -237 65 -513 87 l-228 17 0 73 0
73 108 0 c225 1 454 19 562 44 407 94 741 338 955 697 148 250 223 582 196
867 -30 311 -149 606 -313 778 l-77 80 51 52 52 51 97 -93 c208 -200 439 -323
719 -383 120 -26 430 -26 550 0 286 61 524 190 725 392 199 199 327 434 388
708 l15 67 -2224 0 -2224 0 0 -3500z"/>
<path d="M4524 6993 l69 -4 -7 -874 -6 -874 427 -3 428 -4 90 -27 c371 -114
613 -378 697 -762 18 -85 19 -1678 0 -1776 -63 -334 -288 -613 -592 -733 -150
-59 -153 -59 -605 -65 l-420 -6 -3 -922 -2 -923 -63 -1 c-34 -1 -75 -5 -92 -9
-16 -4 552 -8 1263 -9 l1292 -1 0 3500 0 3500 -1272 -2 c-700 -1 -1242 -4
-1204 -5z"/>
<path d="M4422 6485 c-8 -16 -38 -68 -69 -115 -320 -492 -897 -764 -1480 -699
-86 9 -283 53 -338 75 -11 4 137 -153 329 -349 192 -196 355 -357 361 -357 7
0 24 9 38 20 45 35 142 87 225 119 139 53 215 61 599 61 266 0 345 3 348 13 3
6 4 293 3 636 -3 528 -5 620 -16 596z"/>
<path d="M2314 5726 c20 -59 48 -182 62 -280 22 -148 14 -398 -16 -541 -109
-512 -433 -925 -904 -1152 l-71 -34 410 6 c226 3 557 8 737 11 l326 7 5 346
c4 318 6 352 26 426 30 109 108 266 174 351 l55 71 -405 404 c-223 222 -403
395 -399 385z"/>
<path d="M3725 5089 c-172 -22 -333 -100 -461 -221 -123 -117 -197 -244 -235
-404 -19 -80 -20 -116 -17 -941 l3 -858 28 -80 c79 -225 215 -382 419 -485
176 -88 135 -85 1098 -85 l845 0 88 28 c159 50 271 119 378 235 98 106 154
211 196 363 17 59 18 133 18 914 l0 850 -23 80 c-85 293 -301 506 -597 587
-79 22 -90 22 -875 24 -437 1 -826 -2 -865 -7z m1520 -309 c261 -67 455 -261
532 -530 17 -60 18 -114 18 -705 0 -725 3 -692 -82 -865 -38 -79 -61 -110
-132 -181 -71 -71 -102 -94 -181 -132 -173 -85 -140 -82 -865 -82 -718 0 -690
-2 -850 75 -193 94 -331 264 -385 476 -19 73 -20 113 -20 701 0 708 -1 701 77
863 39 81 59 108 137 186 74 74 107 99 178 134 161 79 150 78 864 79 600 1
635 0 709 -19z"/>
<path d="M3882 4645 c-219 -48 -400 -231 -447 -451 -22 -102 -21 -1197 0
-1299 45 -215 216 -394 430 -450 87 -22 1251 -23 1340 0 213 54 376 217 430
430 23 89 22 1253 0 1340 -56 214 -235 385 -450 430 -99 21 -1207 20 -1303 0z
m1416 -454 c131 -67 83 -281 -63 -281 -94 0 -159 92 -133 188 12 43 31 67 73
93 38 24 76 24 123 0z m-1359 -783 c16 -94 55 -164 135 -243 125 -124 269
-179 471 -179 230 0 414 82 530 236 45 60 85 163 85 219 l0 29 75 0 c87 0 85
4 60 -113 -42 -198 -218 -386 -438 -465 -112 -41 -190 -54 -318 -54 -296 1
-566 148 -684 373 -38 73 -65 164 -65 221 l0 38 69 0 69 0 11 -62z"/>
<path d="M5190 4127 c-65 -33 -64 -108 2 -140 96 -47 186 61 107 127 -33 28
-70 33 -109 13z"/>
<path d="M1865 3579 c-203 -3 -397 -7 -430 -8 l-60 -1 85 -46 c517 -277 839
-766 892 -1352 18 -204 -7 -425 -72 -635 -12 -38 -20 -71 -18 -73 2 -2 181
174 397 390 l394 394 -46 73 c-53 87 -91 173 -120 278 -20 71 -21 105 -25 534
l-3 457 -312 -2 c-172 -1 -478 -5 -682 -9z"/>
<path d="M2695 1690 l-450 -450 75 25 c206 70 494 100 721 75 412 -45 781
-228 1074 -531 121 -125 205 -241 287 -395 l53 -101 0 776 0 776 -405 6 c-382
5 -409 6 -479 28 -142 42 -275 114 -374 201 -25 22 -47 40 -49 40 -2 0 -206
-203 -453 -450z"/>
</g>
</svg>
